<svg xmlns="http://www.w3.org/2000/svg" width="160" height="160" viewBox="0 0 160 160">
  <defs>
    <linearGradient id="bg" x1="24" y1="8" x2="136" y2="152" gradientUnits="userSpaceOnUse">
      <stop stop-color="#F7D7B7"/>
      <stop offset=".55" stop-color="#C68E67"/>
      <stop offset="1" stop-color="#6F432E"/>
    </linearGradient>
    <linearGradient id="hair" x1="48" y1="26" x2="112" y2="142" gradientUnits="userSpaceOnUse">
      <stop stop-color="#6B3B25"/>
      <stop offset="1" stop-color="#2A1510"/>
    </linearGradient>
  </defs>
  <circle cx="80" cy="80" r="80" fill="url(#bg)"/>
  <path d="M42 142c8-27 22-41 38-41s30 14 38 41H42z" fill="#F8EFE6"/>
  <path d="M41 82c0-35 16-56 39-56s39 21 39 56c0 38-18 60-39 60S41 120 41 82z" fill="url(#hair)"/>
  <ellipse cx="80" cy="75" rx="28" ry="34" fill="#F4C6A4"/>
  <path d="M50 72c8-24 21-36 39-36 13 5 22 18 28 38-19 0-37-8-50-23-6 9-11 16-17 21z" fill="#3A2017"/>
  <circle cx="69" cy="78" r="3" fill="#2A1510"/>
  <circle cx="91" cy="78" r="3" fill="#2A1510"/>
  <path d="M70 96c7 7 14 7 21 0" fill="none" stroke="#9B503E" stroke-width="4" stroke-linecap="round"/>
</svg>
